<?xml version="1.0" encoding="UTF-8"?>
<svg id="Capa_1" xmlns="http://www.w3.org/2000/svg" version="1.1" viewBox="0 0 317.5 117.43">
  <defs>
    <style>
      .st0 {
        fill: #691a37;
      }
    </style>
  </defs>
  <g>
    <g>
      <rect x="166.83" y="22.73" width="10.27" height="48.85"/>
      <path d="M213.5,71.58v-20.21c0-5.4-1.49-9.37-4.48-11.92-2.99-2.54-7.18-3.82-12.58-3.82-2.81,0-5.57.36-8.29,1.09-2.72.72-5.05,1.79-6.98,3.19l3.62,7.18c1.32-1.01,2.88-1.81,4.71-2.4,1.82-.59,3.67-.89,5.56-.89,2.76,0,4.82.61,6.16,1.84,1.34,1.23,2.01,2.94,2.01,5.14v.07h-8.1c-3.64,0-6.58.44-8.82,1.32-2.24.88-3.87,2.12-4.9,3.72-1.03,1.6-1.55,3.43-1.55,5.5s.54,3.84,1.61,5.46c1.08,1.63,2.6,2.91,4.58,3.85,1.98.94,4.32,1.42,7.04,1.42,3.12,0,5.66-.6,7.64-1.81,1.33-.82,2.39-1.85,3.16-3.12v4.4h9.61ZM203.23,60.39c-.57,1.62-1.55,2.83-2.93,3.62s-2.95,1.19-4.71,1.19-3.15-.38-4.18-1.15c-1.03-.77-1.55-1.81-1.55-3.13,0-1.18.45-2.17,1.35-2.96.9-.79,2.56-1.19,4.97-1.19h7.04v3.62Z"/>
      <path d="M267.21,22.73l-13.29,6.04-4.16,1.86h-20.45v28.57c0,1.49.38,2.66,1.15,3.49.77.84,1.81,1.25,3.13,1.25,1.52,0,2.82-.36,4.12-1.26.36.84.78,1.64,1.26,2.43.87,1.43,1.89,2.74,3.05,3.91-1.98,1.36-3.96,2.2-5.24,2.52-1.47.37-3,.56-4.58.56-4.17,0-7.42-1.06-9.74-3.19-2.33-2.13-3.49-5.3-3.49-9.51v-28.77h-37.79v-7.9h37.79v-8.28h10.34v8.28h37.9Z"/>
      <path d="M278.37,53.87c0,3.56-.84,6.69-2.5,9.41-1.67,2.72-3.97,4.87-6.91,6.45-2.94,1.58-6.3,2.37-10.07,2.37s-7.06-.79-9.97-2.37c-2.92-1.58-5.21-3.74-6.88-6.49-1.67-2.74-2.5-5.87-2.5-9.38s.83-6.7,2.5-9.45c.88-1.45,1.94-2.74,3.17-3.85l1.09.75,1.02.7,2.34,1.61,1.85,1.27.06.04c-.78,1.01-1.43,2.05-1.97,3.12-2.85,5.66-1.71,11.31,2.82,14.06,1.68,1.02,3.7,1.54,5.97,1.54,1.54,0,3.14-.24,4.77-.72,2.16-.63,4.38-1.69,6.41-3.06,1.62-1.09,3.09-2.36,4.37-3.77,1.29-1.42,2.34-2.93,3.12-4.49.11-.22.22-.45.33-.69h0s0-.02,0-.02c.2-.44.37-.89.52-1.33.3,1.36.45,2.78.45,4.28Z"/>
      <path d="M164.29,39.39c0-3.42-.81-6.39-2.44-8.89-1.62-2.5-3.93-4.42-6.91-5.76-2.99-1.34-6.54-2.01-10.67-2.01h-19.95v48.85h10.73v-15.47h9.22c4.12,0,7.68-.68,10.67-2.04,2.98-1.36,5.29-3.28,6.91-5.76,1.62-2.48,2.44-5.45,2.44-8.92ZM143.68,31.42c3.25,0,5.71.69,7.37,2.07,1.67,1.38,2.5,3.35,2.5,5.89s-.84,4.52-2.5,5.93c-1.67,1.41-4.13,2.11-7.37,2.11h-8.62v-15.92l8.62-.08Z"/>
      <path d="M128.7,80.69c.33-.33.72-.58,1.17-.76.45-.18.94-.27,1.48-.27.57,0,1.1.11,1.59.35.49.23.92.57,1.31,1.02l1.73-1.58c-.55-.67-1.23-1.18-2.04-1.52-.81-.35-1.72-.52-2.71-.52-.89,0-1.72.15-2.48.44-.76.29-1.42.7-1.99,1.24-.56.54-1,1.17-1.31,1.89-.31.72-.47,1.52-.47,2.38s.15,1.66.47,2.39c.31.72.75,1.35,1.31,1.89.56.54,1.22.95,1.98,1.24.76.29,1.59.44,2.48.44,1.01,0,1.92-.18,2.73-.52.81-.35,1.49-.86,2.04-1.53l-1.73-1.58c-.38.45-.82.79-1.31,1.03-.49.23-1.02.35-1.59.35-.54,0-1.03-.09-1.48-.27-.45-.18-.84-.44-1.17-.77-.33-.33-.58-.72-.77-1.17-.18-.45-.27-.95-.27-1.5s.09-1.04.27-1.49c.18-.45.44-.84.77-1.17Z"/>
      <path d="M144.28,80.69c-.7-.37-1.48-.56-2.34-.56s-1.71.19-2.43.58c-.72.39-1.28.93-1.68,1.62-.4.69-.6,1.48-.6,2.35s.21,1.66.63,2.34c.42.69,1,1.23,1.76,1.62.76.4,1.64.59,2.65.59.8,0,1.51-.12,2.12-.37.61-.25,1.12-.6,1.53-1.06l-1.37-1.48c-.3.28-.62.5-.98.64-.36.14-.76.21-1.23.21-.54,0-1-.1-1.38-.29-.38-.19-.68-.47-.9-.83-.12-.2-.21-.42-.26-.66h6.69c0-.11.02-.23.03-.35,0-.13.02-.24.02-.34,0-.95-.2-1.77-.61-2.45-.41-.68-.96-1.2-1.65-1.58ZM139.77,83.91c.04-.28.12-.52.24-.75.19-.35.45-.61.78-.81.33-.19.72-.29,1.16-.29s.82.1,1.15.29c.33.19.59.46.77.8.12.22.2.48.24.76h-4.35Z"/>
      <path d="M156.29,80.55c-.55-.28-1.18-.42-1.88-.42-.76,0-1.43.16-2.02.48-.35.19-.65.42-.9.71v-1.05h-2.45v8.85h2.56v-4.37c0-.56.09-1.01.27-1.35.18-.34.43-.6.76-.77.32-.18.69-.26,1.09-.26.57,0,1.01.17,1.32.51.31.34.47.87.47,1.58v4.67h2.57v-5.07c0-.9-.16-1.64-.48-2.21-.32-.57-.75-1-1.31-1.28Z"/>
      <path d="M165.13,87.2c-.33,0-.59-.11-.78-.31-.19-.21-.29-.5-.29-.87v-3.78h2.19v-1.97h-2.19v-1.96h-2.58v1.96h-1.36v1.97h1.36v3.83c0,1.05.29,1.84.87,2.38s1.39.8,2.43.8c.4,0,.78-.05,1.14-.14.37-.09.68-.23.93-.42l-.67-1.81c-.29.22-.64.33-1.05.33Z"/>
      <path d="M171.54,81.42v-1.16h-2.45v8.85h2.57v-4.18c0-.84.21-1.47.64-1.87.43-.41,1.01-.61,1.73-.61.09,0,.18,0,.27.02.09.01.19.03.29.05v-2.38c-.83,0-1.54.16-2.12.48-.37.21-.68.48-.92.81Z"/>
      <path d="M183.2,80.69c-.7-.37-1.48-.56-2.34-.56s-1.71.19-2.43.58c-.72.39-1.28.93-1.68,1.62-.4.69-.6,1.48-.6,2.35s.21,1.66.63,2.34c.41.69,1,1.23,1.76,1.62.76.4,1.64.59,2.65.59.8,0,1.51-.12,2.12-.37.61-.25,1.12-.6,1.53-1.06l-1.37-1.48c-.3.28-.62.5-.98.64-.36.14-.77.21-1.23.21-.54,0-1-.1-1.38-.29-.38-.19-.68-.47-.9-.83-.12-.2-.21-.42-.26-.66h6.69c.01-.11.02-.23.03-.35.01-.13.02-.24.02-.34,0-.95-.2-1.77-.61-2.45-.41-.68-.96-1.2-1.65-1.58ZM178.69,83.91c.04-.28.12-.52.24-.75.19-.35.45-.61.78-.81.34-.19.72-.29,1.16-.29s.82.1,1.15.29c.33.19.59.46.77.8.12.22.2.48.24.76h-4.35Z"/>
      <path d="M199.82,81.19c-.2-.22-.43-.41-.69-.56-.56-.33-1.21-.49-1.96-.49-.83,0-1.58.19-2.25.57-.67.38-1.19.91-1.58,1.59s-.58,1.48-.58,2.4.19,1.72.58,2.4.91,1.21,1.58,1.59c.67.38,1.42.57,2.25.57.78,0,1.45-.16,2-.48.29-.17.55-.39.76-.66v1.01h2.45v-12.2h-2.57v4.28ZM199.57,86c-.2.37-.48.66-.82.85-.34.19-.72.29-1.15.29s-.79-.1-1.13-.29c-.34-.19-.61-.47-.82-.85-.2-.37-.3-.81-.3-1.31s.1-.95.3-1.32c.2-.36.47-.64.82-.83.34-.19.72-.29,1.13-.29s.81.1,1.15.29c.34.19.61.47.82.83.2.36.3.8.3,1.32s-.1.94-.3,1.31Z"/>
      <path d="M206.52,76.77c-.45,0-.83.15-1.14.44-.31.29-.46.68-.46,1.16s.15.85.45,1.13c.12.11.26.2.41.27l-.71,2.6h1.64l.94-2.37c.13-.31.23-.56.3-.74.07-.19.11-.35.12-.48.02-.14.02-.27.02-.4,0-.48-.15-.87-.44-1.16-.3-.29-.67-.44-1.13-.44Z"/>
      <path d="M216.62,80.69c-.7-.37-1.48-.56-2.35-.56s-1.71.19-2.43.58c-.72.39-1.28.93-1.68,1.62-.4.69-.6,1.48-.6,2.35s.21,1.66.63,2.34c.42.69,1,1.23,1.76,1.62.76.4,1.64.59,2.65.59.8,0,1.51-.12,2.12-.37.61-.25,1.12-.6,1.53-1.06l-1.37-1.48c-.3.28-.62.5-.98.64-.36.14-.77.21-1.23.21-.54,0-1-.1-1.38-.29-.38-.19-.68-.47-.9-.83-.12-.2-.21-.42-.26-.66h6.69c0-.11.02-.23.03-.35,0-.13.02-.24.02-.34,0-.95-.2-1.77-.61-2.45-.41-.68-.96-1.2-1.65-1.58ZM212.11,83.91c.04-.28.12-.52.24-.75.19-.35.45-.61.78-.81.33-.19.72-.29,1.16-.29s.82.1,1.15.29c.33.19.59.46.77.8.12.22.2.48.24.76h-4.35Z"/>
      <path d="M227.46,84.46c-.32-.18-.67-.32-1.04-.42-.37-.1-.75-.18-1.13-.23-.38-.05-.74-.11-1.05-.16-.32-.06-.58-.14-.77-.26-.2-.11-.3-.28-.3-.5,0-.24.13-.44.4-.59.26-.15.69-.23,1.28-.23.4,0,.81.05,1.24.15s.86.27,1.27.51l.87-1.83c-.43-.24-.95-.43-1.57-.57-.62-.14-1.24-.21-1.85-.21-.86,0-1.58.12-2.19.36-.6.24-1.07.58-1.4,1.01-.33.43-.49.93-.49,1.49,0,.5.1.92.29,1.23.19.32.45.57.77.75.32.18.67.32,1.05.42.38.1.76.18,1.14.23.38.05.73.11,1.04.16.31.06.56.14.76.24.19.1.29.26.29.47,0,.25-.12.45-.37.59-.25.14-.67.21-1.26.21-.54,0-1.08-.08-1.64-.24-.56-.16-1.04-.36-1.46-.6l-.84,1.83c.42.27.97.5,1.66.68.69.18,1.42.27,2.17.27.89,0,1.64-.12,2.26-.36.62-.24,1.09-.57,1.42-1,.33-.42.49-.9.49-1.44,0-.5-.1-.92-.29-1.23-.19-.32-.45-.57-.77-.75Z"/>
      <path d="M234.83,87.2c-.33,0-.59-.11-.78-.31-.19-.21-.29-.5-.29-.87v-3.78h2.19v-1.97h-2.19v-1.96h-2.58v1.96h-1.36v1.97h1.36v3.83c0,1.05.29,1.84.87,2.38s1.39.8,2.43.8c.4,0,.78-.05,1.14-.14.37-.09.68-.23.93-.42l-.67-1.81c-.29.22-.64.33-1.05.33Z"/>
      <path d="M245.16,84.65c0,.53-.09.97-.27,1.31-.18.35-.42.61-.73.79-.31.18-.66.26-1.05.26-.57,0-1.01-.17-1.32-.52-.31-.35-.47-.89-.47-1.64v-4.6h-2.57v5c0,.9.16,1.64.48,2.24.32.59.76,1.03,1.33,1.32.57.28,1.23.43,1.97.43.68,0,1.31-.16,1.87-.47.34-.18.63-.42.87-.71v1.05h2.43v-8.85h-2.55v4.39Z"/>
      <path d="M257.31,81.19c-.2-.22-.43-.41-.69-.57-.56-.33-1.21-.49-1.96-.49-.83,0-1.59.19-2.25.57-.67.38-1.19.91-1.58,1.59-.38.68-.57,1.48-.57,2.4s.19,1.72.57,2.4c.38.68.91,1.21,1.58,1.59.67.38,1.42.57,2.25.57.78,0,1.44-.16,2-.48.29-.17.55-.39.77-.66v1.01h2.45v-12.2h-2.56v4.28ZM257.06,86c-.2.37-.48.66-.82.85s-.72.29-1.15.29-.79-.1-1.13-.29-.61-.47-.82-.85c-.2-.37-.3-.81-.3-1.31s.1-.95.3-1.32c.2-.36.48-.64.82-.83.34-.19.72-.29,1.13-.29s.81.1,1.15.29c.34.19.61.47.82.83.2.36.3.8.3,1.32s-.1.94-.3,1.31Z"/>
      <path d="M265.46,76.55c-.3-.26-.69-.39-1.16-.39s-.87.14-1.17.41c-.3.27-.45.61-.45,1.02s.15.75.45,1.02c.3.27.68.41,1.17.41s.87-.14,1.17-.42c.3-.28.44-.63.44-1.06s-.15-.74-.45-1Z"/>
      <rect x="263.02" y="80.26" width="2.57" height="8.85"/>
      <path d="M274.83,84.46c-.33-.18-.67-.32-1.04-.42-.37-.1-.75-.18-1.13-.23-.38-.05-.74-.11-1.05-.16-.32-.06-.57-.14-.77-.26-.2-.11-.3-.28-.3-.5,0-.24.13-.44.4-.59.26-.15.69-.23,1.28-.23.4,0,.81.05,1.24.15.43.1.86.27,1.27.51l.87-1.83c-.43-.24-.95-.43-1.57-.57-.62-.14-1.24-.21-1.85-.21-.86,0-1.58.12-2.19.36-.6.24-1.07.58-1.4,1.01-.33.43-.49.93-.49,1.49,0,.5.09.92.29,1.23.19.32.45.57.77.75.32.18.67.32,1.05.42.38.1.76.18,1.14.23.38.05.73.11,1.04.16.31.06.56.14.76.24.19.1.29.26.29.47,0,.25-.12.45-.37.59-.25.14-.67.21-1.26.21-.54,0-1.08-.08-1.64-.24-.55-.16-1.04-.36-1.46-.6l-.84,1.83c.42.27.97.5,1.66.68s1.42.27,2.17.27c.89,0,1.64-.12,2.26-.36.62-.24,1.09-.57,1.42-1,.33-.42.49-.9.49-1.44,0-.5-.1-.92-.29-1.23-.19-.32-.45-.57-.77-.75Z"/>
      <path class="st0" d="M287.97,56.41c.68-.86,1.08-1.89.68-3.02-.31-.88-1.02-1.63-2.17-1.87l.23-9.36.04-1.49.04-1.52c4.22-1.59,6.97-2.64,6.97-2.64l-16.79-13.84-21.4,9.73-9.21,4.12,2.2,1.51h0l3.36,2.31,1.85,1.27,2.78,1.9c.27.18.39.48.37.81-.02.42-.26.91-.7,1.35-1.29,1.31-2.32,2.71-3.05,4.16-1.96,3.9-1.3,7.28,1.32,8.87,1.02.62,2.34.97,3.91.97,1.18,0,2.42-.2,3.66-.56,1.81-.52,3.63-1.4,5.3-2.53,1.34-.9,2.58-1.97,3.65-3.15,1.01-1.11,1.87-2.32,2.51-3.59.09-.18.18-.37.26-.55.63-1.42.93-2.78.87-4.04-.02-.4.18-.86.54-1.29h0c.36-.43.86-.78,1.38-.97.55-.2,1.09-.41,1.62-.61,2.49-.93,4.83-1.81,6.91-2.59l.02,1.5.02,1.46.13,8.82c-1.16.3-1.77,1.1-2.04,1.91-.37,1.12.07,2.08.69,2.92-1.82,4.83-2.52,10.56-2.5,15.76h9.06c.09-.01.16-.13.18-.16.02-.04-.13-.14-.13-.22-.16-5.3-.67-10.41-2.55-15.38Z"/>
    </g>
    <path class="st0" d="M287.97,56.41c.68-.86,1.08-1.89.68-3.02-.31-.88-1.02-1.63-2.17-1.87l.23-9.36.04-1.49.04-1.52c4.22-1.59,6.97-2.64,6.97-2.64l-16.79-13.84-21.4,9.73-9.21,4.12,2.2,1.51h0l3.36,2.31,1.85,1.27,2.78,1.9c.27.18.39.48.37.81-.02.42-.26.91-.7,1.35-1.29,1.31-2.32,2.71-3.05,4.16-1.96,3.9-1.3,7.28,1.32,8.87,1.02.62,2.34.97,3.91.97,1.18,0,2.42-.2,3.66-.56,1.81-.52,3.63-1.4,5.3-2.53,1.34-.9,2.58-1.97,3.65-3.15,1.01-1.11,1.87-2.32,2.51-3.59.09-.18.18-.37.26-.55.63-1.42.93-2.78.87-4.04-.02-.4.18-.86.54-1.29h0c.36-.43.86-.78,1.38-.97.55-.2,1.09-.41,1.62-.61,2.49-.93,4.83-1.81,6.91-2.59l.02,1.5.02,1.46.13,8.82c-1.16.3-1.77,1.1-2.04,1.91-.37,1.12.07,2.08.69,2.92-1.82,4.83-2.52,10.56-2.5,15.76h9.06c.09-.01.16-.13.18-.16.02-.04-.13-.14-.13-.22-.16-5.3-.67-10.41-2.55-15.38Z"/>
  </g>
  <g>
    <path d="M79.78,65.25c-3.39-.35-6.07.09-9.01.91v-10.84c1.13-1.78,2.88-2.67,4.81-2.48,1.43.14,3.8.51,4.13,2.48.55,3.26.17,6.51.07,9.93ZM95.93,64.5l-8.87.03s-.05-3.7-.12-8.94c-.03-2.26-.05-4.81-.08-7.47-.1-10.29-.18-22.27,0-25.91.1-1.93,3.79-2.41,5.44-2.44.03,0,.05,0,.07,0,.84,0,2.2.19,3.34.59.29.1.56.21.8.34,0,0,0,0,0,0,.12.06.24.13.35.19.05.04.11.08.16.11.1.07.19.15.28.23.05.04.09.08.12.12.22.26.35.54.35.85l.1,26.94.06,15.34h-2.01ZM103.55,68.79l-.02-4.31-.15-42.3c-.01-1.52-.6-5.27-5.83-7.1-1.59-.56-3.58-.91-5.19-.91h-.17c-6.4.12-10.7,3.16-10.93,7.77-.19,3.85-.12,16.36,0,26.86-2.19-1.3-4.62-1.86-7.24-1.58-4.38.47-7.63,2.97-9.16,7.31-6.44-3.43-13.73-.71-16.03,5.81-5.47-2.93-12.97-1.6-15.35,4.44-1.82,4.61-2.67,16.83,2.71,22.09,4.49,3.19,9.8,3.15,14.01.12h0c1.47,1.67,3.62,2.58,5.85,2.58,0,0,32.25-.36,34.54-.45,1.56-.06,2.74-1.36,2.89-2.55.11-.85-.78-2.89-1.97-2.97-4.83-.35-9.57-.05-14.68-.14-3.38-.06-7-2.56-6.99-6.34.01-3.62,3.6-6.3,6.99-6.3l19.71.03c1.82,0,2.89,1.8,3.8,3.06,2.78,3.83,5.69,8.49,6.41,13.34.2,1.34,1.35,2.33,2.71,2.33h0c1.68,0,2.96-1.49,2.71-3.15-1.21-8.04-6.13-14.16-8.63-17.64ZM47.44,81.25c-.49,2.85-7.76,3.4-8.31.09-.81-4.78-1.13-10.27.02-14.61.87-3.25,6.89-2.52,8.54-.19-.12,5.02.63,9.64-.25,14.71ZM59.67,85.48c-1.32.03-4.59-.2-4.74-2.1-.66-7.55-.44-14.71-.16-21.96.08-2.07,3.15-2.59,4.52-2.62,1.37-.03,4.56.78,4.57,2.62l.12,21.29c-.14,1.68-2.99,2.73-4.3,2.78Z"/>
    <rect class="st0" x="31.72" y="43.51" width="15.8" height="4.42" rx="1.51" ry="1.51" transform="translate(23.76 -12.66) rotate(25.71)"/>
    <rect class="st0" x="54.12" y="36.42" width="15.8" height="3.92" rx="1.34" ry="1.34" transform="translate(121.67 -3.59) rotate(113.12)"/>
    <rect class="st0" x="42.19" y="36.31" width="15.8" height="4.36" rx="1.49" ry="1.49" transform="translate(26.98 97.27) rotate(-106.08)"/>
  </g>
</svg>
