<?xml version="1.0" encoding="UTF-8"?>
<svg xmlns="http://www.w3.org/2000/svg" viewBox="14 10 100 92">
  <style>.st0 { fill: #691a37; }</style>
  <path d="M79.78,65.25c-3.39-.35-6.07.09-9.01.91v-10.84c1.13-1.78,2.88-2.67,4.81-2.48,1.43.14,3.8.51,4.13,2.48.55,3.26.17,6.51.07,9.93ZM95.93,64.5l-8.87.03s-.05-3.7-.12-8.94c-.03-2.26-.05-4.81-.08-7.47-.1-10.29-.18-22.27,0-25.91.1-1.93,3.79-2.41,5.44-2.44.03,0,.05,0,.07,0,.84,0,2.2.19,3.34.59.29.1.56.21.8.34,0,0,0,0,0,0,.12.06.24.13.35.19.05.04.11.08.16.11.1.07.19.15.28.23.05.04.09.08.12.12.22.26.35.54.35.85l.1,26.94.06,15.34h-2.01ZM103.55,68.79l-.02-4.31-.15-42.3c-.01-1.52-.6-5.27-5.83-7.1-1.59-.56-3.58-.91-5.19-.91h-.17c-6.4.12-10.7,3.16-10.93,7.77-.19,3.85-.12,16.36,0,26.86-2.19-1.3-4.62-1.86-7.24-1.58-4.38.47-7.63,2.97-9.16,7.31-6.44-3.43-13.73-.71-16.03,5.81-5.47-2.93-12.97-1.6-15.35,4.44-1.82,4.61-2.67,16.83,2.71,22.09,4.49,3.19,9.8,3.15,14.01.12h0c1.47,1.67,3.62,2.58,5.85,2.58,0,0,32.25-.36,34.54-.45,1.56-.06,2.74-1.36,2.89-2.55.11-.85-.78-2.89-1.97-2.97-4.83-.35-9.57-.05-14.68-.14-3.38-.06-7-2.56-6.99-6.34.01-3.62,3.6-6.3,6.99-6.3l19.71.03c1.82,0,2.89,1.8,3.8,3.06,2.78,3.83,5.69,8.49,6.41,13.34.2,1.34,1.35,2.33,2.71,2.33h0c1.68,0,2.96-1.49,2.71-3.15-1.21-8.04-6.13-14.16-8.63-17.64ZM47.44,81.25c-.49,2.85-7.76,3.4-8.31.09-.81-4.78-1.13-10.27.02-14.61.87-3.25,6.89-2.52,8.54-.19-.12,5.02.63,9.64-.25,14.71ZM59.67,85.48c-1.32.03-4.59-.2-4.74-2.1-.66-7.55-.44-14.71-.16-21.96.08-2.07,3.15-2.59,4.52-2.62,1.37-.03,4.56.78,4.57,2.62l.12,21.29c-.14,1.68-2.99,2.73-4.3,2.78Z"/>
  <rect class="st0" x="31.72" y="43.51" width="15.8" height="4.42" rx="1.51" ry="1.51" transform="translate(23.76 -12.66) rotate(25.71)"/>
  <rect class="st0" x="54.12" y="36.42" width="15.8" height="3.92" rx="1.34" ry="1.34" transform="translate(121.67 -3.59) rotate(113.12)"/>
  <rect class="st0" x="42.19" y="36.31" width="15.8" height="4.36" rx="1.49" ry="1.49" transform="translate(26.98 97.27) rotate(-106.08)"/>
</svg>
